# xmcd
#
# Track frame offsets: 
#        150
#        21157
#        38810
#        59957
#        76672
#        91087
#        104842
#        122207
#        137761
#        152974
#        168013
#        180343
#        197553
#        213106
#        230695
#        247975
#        264810
#        283133
#        298017
#        316665
#
# Disc length: 4462 seconds
#
# Revision: 2
# Processed by: cddbd v1.5.2PL0 Copyright (c) Steve Scherf et al.
# Submitted via: ExactAudioCopy v1.0b2
#
DISCID=14116c14
DTITLE=Вячеслав малежик - Grand Collection
DYEAR=2004
DGENRE=Pop
TTITLE0=Âÿ÷åñëàâ Ìàëåæèê - Мозайка
TTITLE1=Âÿ÷åñëàâ Ìàëåæèê - Любовь-река
TTITLE2=Âÿ÷åñëàâ Ìàëåæèê - Всё-таки ты права
TTITLE3=Âÿ÷åñëàâ Ìàëåæèê - Двести лет
TTITLE4=Âÿ÷åñëàâ Ìàëåæèê - Провинциалка
TTITLE5=Âÿ÷åñëàâ Ìàëåæèê - Липонька
TTITLE6=Âÿ÷åñëàâ Ìàëåæèê - Òû ìíå íðàâèøüñÿ
TTITLE7=Âÿ÷åñëàâ Ìàëåæèê - Çèìà-çèìà
TTITLE8=Âÿ÷åñëàâ Ìàëåæèê - Äî ñâèäàíüÿ
TTITLE9=Âÿ÷åñëàâ Ìàëåæèê - Äîðîãà
TTITLE10=Âÿ÷åñëàâ Ìàëåæèê - Ëèëèïóòèê
TTITLE11=Âÿ÷åñëàâ Ìàëåæèê - Ëþáèòå ñêàçêè
TTITLE12=Âÿ÷åñëàâ Ìàëåæèê - Ãàäàëêà
TTITLE13=Âÿ÷åñëàâ Ìàëåæèê - Íåäàâíî è äàâíî
TTITLE14=Âÿ÷åñëàâ Ìàëåæèê - ß äàðþ òåáå äîæäü
TTITLE15=Âÿ÷åñëàâ Ìàëåæèê - Ó òåáÿ ñåãîäíÿ ñâàäüáà
TTITLE16=Âÿ÷åñëàâ Ìàëåæèê - Ìàäàì
TTITLE17=Âÿ÷åñëàâ Ìàëåæèê - Áåç òåáÿ
TTITLE18=Âÿ÷åñëàâ Ìàëåæèê - Àííà
TTITLE19=Âÿ÷åñëàâ Ìàëåæèê - Äâå ëþáâè
EXTD=
EXTT0=
EXTT1=
EXTT2=
EXTT3=
EXTT4=
EXTT5=
EXTT6=
EXTT7=
EXTT8=
EXTT9=
EXTT10=
EXTT11=
EXTT12=
EXTT13=
EXTT14=
EXTT15=
EXTT16=
EXTT17=
EXTT18=
EXTT19=
PLAYORDER=
